<svg width="49" height="49" viewBox="0 0 49 49" fill="none" xmlns="http://www.w3.org/2000/svg">
<path d="M25.7187 36.9926L13.1188 30.2088C12.5641 29.9102 12.2542 29.2834 12.3466 28.6687L15.1366 10.324C15.3621 8.86103 17.3238 8.57141 17.9619 9.88599L21.2111 16.5077C21.6409 17.3864 22.8082 17.6231 23.5457 16.981L29.6258 11.6684C30.6671 10.7469 32.2916 11.6216 32.0956 12.9982L31.0079 20.9987C30.8708 21.9811 31.7049 22.8049 32.6883 22.6871L40.005 21.7541C41.4669 21.5702 42.2848 23.3734 41.1947 24.3538L27.4163 36.7823C26.9672 37.2049 26.2734 37.2913 25.7187 36.9926Z" fill="#DADADA"/>
<path d="M25.7285 29.7917L19.1248 26.2362C18.5833 25.9447 18.376 25.2539 18.6676 24.7124C18.9591 24.1709 19.6499 23.9636 20.1914 24.2551L26.7951 27.8106C27.3366 28.1021 27.5439 28.793 27.2524 29.3345C26.9608 29.876 26.27 30.0832 25.7285 29.7917Z" fill="#005F99"/>
</svg>
