<svg width="36" height="36" viewBox="0 0 36 36" fill="none" xmlns="http://www.w3.org/2000/svg">
<path d="M25 30.7499V31.2499H25.5H27C27.3389 31.2499 27.625 31.5361 27.625 31.8749C27.625 32.2138 27.3389 32.4999 27 32.4999H9C8.66114 32.4999 8.375 32.2138 8.375 31.8749C8.375 31.5361 8.66114 31.2499 9 31.2499H10.5H11V30.7499V30.3749C11 29.0011 12.1261 27.8749 13.5 27.8749H16.875H17.375V27.3749V24.4842C17.5853 24.4956 17.7938 24.4999 18 24.4999C18.2062 24.4999 18.4147 24.4956 18.625 24.4842V27.3749V27.8749H19.125H22.5C23.8739 27.8749 25 29.0011 25 30.3749V30.7499Z" stroke="white"/>
<path d="M8.28001 17.46C7.29001 17.085 6.42001 16.47 5.73001 15.78C4.33501 14.235 3.42001 12.39 3.42001 10.23C3.42001 8.07 5.11501 6.375 7.27501 6.375H8.11501C7.72501 7.17 7.50001 8.055 7.50001 9V13.5C7.50001 14.91 7.77001 16.245 8.28001 17.46Z" fill="#39FF14"/>
<path d="M32.58 10.23C32.58 12.39 31.665 14.235 30.27 15.78C29.58 16.47 28.71 17.085 27.72 17.46C28.23 16.245 28.5 14.91 28.5 13.5V9C28.5 8.055 28.275 7.17 27.885 6.375H28.725C30.885 6.375 32.58 8.07 32.58 10.23Z" fill="#39FF14"/>
<path d="M21.7 14.1513L21.709 14.1414L21.7174 14.1311L22.6447 12.9945C23.0158 12.5546 23.177 12.0161 23.0111 11.506C22.8455 10.9966 22.3986 10.654 21.8452 10.5109L21.8452 10.5109L21.8425 10.5102L20.4218 10.1513C20.3906 10.1425 20.3265 10.1129 20.2513 10.0556C20.1752 9.99749 20.1254 9.93968 20.1058 9.90795L20.1059 9.90789L20.0999 9.89859L19.3049 8.66859L19.3048 8.66837C18.9949 8.18939 18.5366 7.86625 18 7.86625C17.4634 7.86625 17.0051 8.18939 16.6952 8.66837L16.6951 8.66859L15.9001 9.89859L15.9 9.89852L15.8942 9.90795C15.8746 9.93968 15.8248 9.99749 15.7487 10.0556C15.6735 10.1129 15.6094 10.1425 15.5782 10.1513L14.1575 10.5102L14.1575 10.5102L14.1548 10.5109C13.6014 10.654 13.1545 10.9966 12.9889 11.506C12.823 12.0161 12.9842 12.5546 13.3554 12.9945L14.2826 14.1311L14.291 14.1414L14.3 14.1513C14.3117 14.1642 14.3468 14.2171 14.3769 14.3086C14.4063 14.3982 14.4132 14.4709 14.4111 14.5017L14.4109 14.5044L14.3211 15.9717C14.3211 15.9722 14.321 15.9727 14.321 15.9731C14.2833 16.5441 14.4675 17.0741 14.9016 17.3886C15.335 17.7027 15.8964 17.7142 16.4278 17.5054L16.4289 17.5049L17.7835 16.9691C17.8191 16.9577 17.8969 16.9438 18 16.9438C18.1031 16.9438 18.1809 16.9577 18.2165 16.9691L19.5711 17.5049L19.5722 17.5054C20.1036 17.7142 20.665 17.7027 21.0984 17.3886C21.5325 17.0741 21.7167 16.5441 21.679 15.9731C21.679 15.9727 21.6789 15.9722 21.6789 15.9717L21.5891 14.5044L21.5891 14.5044L21.5889 14.5017C21.5868 14.4709 21.5937 14.3982 21.6231 14.3086C21.6532 14.2171 21.6883 14.1642 21.7 14.1513ZM13.5 3.5H22.5C25.5389 3.5 28 5.96114 28 9V13.5C28 19.0289 23.5289 23.5 18 23.5C12.4711 23.5 8 19.0289 8 13.5V9C8 5.96114 10.4611 3.5 13.5 3.5Z" stroke="white"/>
<path d="M22.26 12.675L21.33 13.815C21.18 13.98 21.075 14.31 21.09 14.535L21.18 16.005C21.24 16.905 20.595 17.37 19.755 17.04L18.39 16.5C18.18 16.425 17.82 16.425 17.61 16.5L16.245 17.04C15.405 17.37 14.76 16.905 14.82 16.005L14.91 14.535C14.925 14.31 14.82 13.98 14.67 13.815L13.74 12.675C13.155 11.985 13.41 11.22 14.28 10.995L15.705 10.635C15.93 10.575 16.2 10.365 16.32 10.17L17.115 8.93996C17.61 8.17496 18.39 8.17496 18.885 8.93996L19.68 10.17C19.8 10.365 20.07 10.575 20.295 10.635L21.72 10.995C22.59 11.22 22.845 11.985 22.26 12.675Z" fill="white"/>
</svg>
