<svg width="36" height="36" viewBox="0 0 36 36" fill="none" xmlns="http://www.w3.org/2000/svg">
<path d="M29.5 14.5V26.6667C29.5 29.0185 29.1217 30.4292 28.3245 31.2707C27.5349 32.1042 26.2172 32.5 24 32.5H12C9.78281 32.5 8.46506 32.1042 7.67548 31.2707C6.87828 30.4292 6.5 29.0185 6.5 26.6667V14.5H29.5Z" stroke="white"/>
<path d="M32.25 10.5V12C32.25 13.65 31.455 15 29.25 15H6.75C4.455 15 3.75 13.65 3.75 12V10.5C3.75 8.85 4.455 7.5 6.75 7.5H29.25C31.455 7.5 32.25 8.85 32.25 10.5Z" fill="white"/>
<path d="M17.46 7.49991H9.18001C8.67001 6.94491 8.68501 6.08991 9.22501 5.54991L11.355 3.41991C11.91 2.86491 12.825 2.86491 13.38 3.41991L17.46 7.49991Z" fill="#39FF14"/>
<path d="M26.805 7.49991H18.525L22.605 3.41991C23.16 2.86491 24.075 2.86491 24.63 3.41991L26.76 5.54991C27.3 6.08991 27.315 6.94491 26.805 7.49991Z" fill="#39FF14"/>
<path opacity="0.6" d="M13.91 22.71V15.5H21.955V22.695C21.955 23.4926 21.0681 23.9635 20.4083 23.5246C20.408 23.5244 20.4077 23.5242 20.4074 23.524L19.0745 22.6254L19.0745 22.6254L19.0724 22.624C18.407 22.1804 17.5461 22.1849 16.8734 22.6202L16.8734 22.6202L16.8697 22.6226L15.4626 23.5507C14.784 23.9838 13.91 23.5058 13.91 22.71Z" fill="#39FF14" stroke="#39FF14"/>
</svg>
